# xmcd CD database file
#
# Track frame offsets:
#	150
#	19398
#	38551
#	58241
#	74418
#	88488
#	95308
#	119465
#	168004
#	177128
#	184552
#	200760
#	212398
#	233992
#	252848
#	282941
#	304871
#
# Disc length: 4345 seconds
#
# Revision: 0
# Processed by: cddbd v1.5.1PL0 Copyright (c) Steve Scherf et al.
# Submitted via: Feurio! 1.67 - http://www.feurio.com
#
DISCID=f010f711
DTITLE=Musical Priest - When Friends Are Parting
DYEAR=1999
DGENRE=
TTITLE0=When Friends Are Parting
TTITLE1=Bring'em All In
TTITLE2=The Edge Of The World
TTITLE3=Brenda Stubbert's
TTITLE4=Bunch Of Roses
TTITLE5=Orange In Bloom
TTITLE6=Spancit Hill
TTITLE7=Skibbereen
TTITLE8=Thig Am Bata
TTITLE9=Visk Polska
TTITLE10=A Fire Is Burning
TTITLE11=The Burren
TTITLE12=Lannigan's Ball
TTITLE13=The Rocky Road To Dublin
TTITLE14=Masters Of War
TTITLE15=Whole World Down
TTITLE16=King Of The Fairies
EXTD=
EXTT0=
EXTT1=
EXTT2=
EXTT3=
EXTT4=
EXTT5=
EXTT6=
EXTT7=
EXTT8=
EXTT9=
EXTT10=
EXTT11=
EXTT12=
EXTT13=
EXTT14=
EXTT15=
EXTT16=
PLAYORDER=
